# xmcd
#
# Track frame offsets:
#      150
#      18033
#      35210
#      50635
#      67218
#      84808
#      99265
#      117585
#      128980
#      143323
# 
# Disc length: 2084 seconds
#
# Revision: 3
# Processed by: cddbd v1.4PL0 Copyright (c) Steve Scherf et al.
#
# Submitted via: FreeRIP 1.20
#
DISCID=8208220a
DTITLE=Tim Hadler - Tim Hadler
DYEAR=1993
DGENRE=Country
TTITLE0=The Light In Your Eyes
TTITLE1=I Thought We Had it Made
TTITLE2=Darling Sweet
TTITLE3=I'm Crying Your Name
TTITLE4=I Just Want To Say
TTITLE5=Oh Eddie, We're Growing Up
TTITLE6=I Think by Now I Could Cry
TTITLE7=Our Love Is Meant To Be
TTITLE8=Abandon! I'm Gone
TTITLE9=Universe Divide
EXTD=
EXTT0=
EXTT1=
EXTT2=
EXTT3=
EXTT4=
EXTT5=
EXTT6=
EXTT7=
EXTT8=
EXTT9=
PLAYORDER=
